<?xml version="1.0" standalone="no"?>
<!DOCTYPE svg PUBLIC "-//W3C//DTD SVG 20010904//EN"
 "http://www.w3.org/TR/2001/REC-SVG-20010904/DTD/svg10.dtd">
<svg version="1.0" xmlns="http://www.w3.org/2000/svg"
 width="576.000000pt" height="138.000000pt" viewBox="0 0 576.000000 138.000000"
 preserveAspectRatio="xMidYMid meet">
<metadata>
Created by potrace 1.16, written by Peter Selinger 2001-2019
</metadata>
<g transform="translate(0.000000,138.000000) scale(0.100000,-0.100000)"
fill="#000000" stroke="none">
<path d="M662 1248 c-7 -7 -12 -22 -12 -35 0 -13 -5 -23 -10 -23 -7 0 -7 -6 0
-19 6 -12 18 -18 30 -16 15 3 20 -2 20 -20 0 -23 17 -35 48 -35 9 0 44 -13 77
-29 44 -21 54 -30 37 -30 -15 -1 -26 -9 -29 -21 -3 -11 -12 -20 -19 -20 -20 0
-17 37 3 44 24 10 4 23 -44 29 -45 5 -53 -2 -28 -23 14 -11 22 -50 10 -50 -14
0 -55 54 -55 73 0 40 -12 65 -31 70 -10 3 -19 2 -19 -2 0 -4 -8 -7 -18 -7 -10
0 -19 6 -19 14 0 7 6 11 14 8 7 -3 13 -1 13 5 0 19 -31 21 -82 4 -52 -17 -53
-17 -67 4 -7 12 -21 21 -30 21 -24 0 -112 -54 -144 -88 -28 -29 -28 -31 -12
-56 20 -31 15 -75 -15 -123 -16 -27 -26 -33 -55 -33 -45 0 -58 -24 -58 -110
-1 -99 5 -108 58 -102 l45 5 25 -54 c30 -66 31 -75 4 -89 -14 -8 -17 -15 -11
-23 5 -7 12 -21 16 -32 5 -19 2 -21 -28 -17 -32 4 -36 1 -54 -34 -11 -22 -23
-53 -26 -70 -7 -30 -6 -31 35 -38 37 -6 41 -9 37 -31 -5 -22 3 -27 79 -60 135
-58 222 -78 348 -78 126 0 224 26 320 84 46 28 54 36 49 56 -6 21 -3 23 35 23
29 0 41 4 41 15 0 21 -40 124 -50 130 -5 3 -36 -8 -68 -24 -55 -28 -58 -31
-54 -60 4 -30 1 -33 -59 -60 -123 -55 -257 -66 -394 -31 -112 29 -159 57 -163
98 -4 39 6 40 54 7 44 -30 51 -31 59 -5 8 24 21 25 108 4 58 -15 67 -20 67
-39 0 -17 7 -24 27 -28 35 -7 130 9 177 28 29 12 36 21 36 43 0 22 13 39 54
75 30 26 58 47 62 47 4 0 15 -7 25 -15 15 -15 20 -12 54 27 21 24 48 66 61 93
l24 50 -30 9 c-32 9 -50 50 -50 111 0 57 10 75 41 75 34 0 35 4 9 73 -26 70
-83 137 -101 120 -22 -21 -49 -15 -92 22 -22 19 -45 35 -50 35 -5 0 -7 17 -4
40 6 48 -1 55 -85 81 -72 22 -119 24 -136 7z m-36 -424 c-2 -6 -17 -14 -33
-17 -15 -3 -36 -9 -45 -12 -16 -6 -18 -1 -18 36 l0 44 21 -33 c26 -40 36 -35
15 7 -21 40 -20 81 2 97 16 13 16 13 -1 14 -31 0 -15 33 21 42 40 11 37 34 -3
31 -15 -1 -37 4 -49 12 -11 8 -25 15 -31 15 -5 -1 2 -8 18 -16 15 -8 27 -21
27 -30 0 -12 -4 -12 -20 -4 -11 6 -20 7 -20 3 0 -4 -7 2 -15 13 -15 19 -16 19
-13 0 2 -13 -6 -24 -20 -32 -15 -7 -20 -14 -12 -19 6 -4 17 -1 25 5 12 10 15
9 15 -4 0 -9 -8 -16 -17 -16 -17 -1 -17 -1 0 -11 25 -14 23 -59 -3 -59 -11 0
-20 -4 -20 -10 0 -5 7 -10 16 -10 14 0 16 -8 11 -42 l-6 -43 18 39 c14 32 19
37 24 22 19 -50 11 -61 -75 -88 -44 -15 -85 -25 -90 -22 -4 3 -8 27 -8 54 0
36 5 52 17 59 13 7 14 12 6 23 -9 10 -7 24 8 58 37 82 107 140 200 163 l54 14
3 -135 c1 -75 1 -141 -2 -148z m340 100 c29 -59 45 -164 24 -164 -9 0 -10 -3
-2 -13 6 -7 9 -23 6 -34 -5 -19 -9 -20 -29 -11 -27 12 -44 41 -19 31 13 -5 15
3 12 43 -3 42 -6 49 -27 54 -38 9 -39 31 -2 24 41 -8 39 0 -4 20 -37 18 -44
30 -21 39 8 3 22 -3 32 -14 9 -10 21 -19 26 -19 16 0 8 21 -18 46 -24 25 -26
25 -44 9 -16 -14 -23 -15 -34 -6 -11 9 -20 10 -35 2 -26 -14 -31 -14 -31 3 0
8 15 17 36 21 33 6 35 7 18 20 -21 15 -12 30 21 37 27 6 61 -26 91 -88z m-131
-224 c55 -23 109 -47 119 -52 19 -10 19 -11 1 -24 -10 -8 -32 -14 -48 -14 -26
0 -29 3 -25 25 6 28 5 29 -35 39 -23 5 -29 3 -37 -19 -7 -19 -17 -25 -39 -25
-29 0 -41 14 -41 50 0 10 6 21 13 24 6 3 3 5 -8 3 -15 -2 -21 -11 -23 -40 -3
-29 -7 -37 -23 -37 -16 0 -19 7 -19 54 0 49 2 55 23 59 28 5 23 7 142 -43z
m-330 -44 l-7 -33 54 -6 c29 -4 79 -7 111 -7 50 0 57 -2 57 -19 0 -19 7 -20
94 -18 89 2 93 1 84 -16 -28 -54 -199 -91 -310 -68 -81 17 -77 30 12 44 16 3
11 5 -14 6 -23 0 -46 -5 -57 -15 -16 -14 -19 -13 -38 7 -12 13 -19 30 -17 38
3 9 8 36 11 61 7 46 12 60 21 60 3 0 2 -15 -1 -34z"/>
</g>
</svg>
